<?xml version="1.0" encoding="utf-8"?>
<!-- Generator: Adobe Illustrator 17.1.0, SVG Export Plug-In . SVG Version: 6.00 Build 0)  -->
<!DOCTYPE svg PUBLIC "-//W3C//DTD SVG 1.1//EN" "http://www.w3.org/Graphics/SVG/1.1/DTD/svg11.dtd">
<svg version="1.1" id="Слой_1" xmlns="http://www.w3.org/2000/svg" xmlns:xlink="http://www.w3.org/1999/xlink" x="0px" y="0px"
	 viewBox="0 0 196.7 64.3" enable-background="new 0 0 196.7 64.3" xml:space="preserve">
<g>
	<path fill="#856447" d="M196.7,55.6c0,4.8-3.9,8.7-8.7,8.7H8.7c-4.8,0-8.7-3.9-8.7-8.7V8.7C0,3.9,3.9,0,8.7,0H188
		c4.8,0,8.7,3.9,8.7,8.7V55.6L196.7,55.6z"/>
	<path fill="#FFFFFF" d="M34.7,45.1H17.2V19h17.5V45.1L34.7,45.1z M26,50.9c-1.3,0-2.3-1-2.3-2.3c0-1.3,1-2.3,2.3-2.3
		c1.3,0,2.3,1,2.3,2.3C28.3,49.9,27.2,50.9,26,50.9L26,50.9z M34,11h-16c-1.9,0-3.5,1.6-3.5,3.5V50c0,1.9,1.6,3.5,3.5,3.5h16
		c1.9,0,3.5-1.6,3.5-3.5V14.5C37.4,12.6,35.9,11,34,11L34,11z"/>
	<path fill="#FFFFFF" d="M53.6,16.4l-0.9-2.7c-0.2-0.6-0.3-1.2-0.5-1.7h0c-0.1,0.5-0.3,1.1-0.5,1.7l-0.9,2.7H53.6L53.6,16.4z
		 M50.6,17.3l-1,2.9h-1.3l3.2-9.4H53l3.2,9.4h-1.3l-1-2.9H50.6L50.6,17.3z"/>
	<path fill="#FFFFFF" d="M57.4,13.5l1.3,3.8c0.2,0.6,0.4,1.2,0.5,1.7h0c0.2-0.6,0.3-1.1,0.6-1.7l1.3-3.8h1.3l-2.6,6.7h-1.2l-2.6-6.7
		H57.4L57.4,13.5z"/>
	<path fill="#FFFFFF" d="M66.9,16.8c-1.3,0-2.9,0.2-2.9,1.5c0,0.8,0.5,1.2,1.1,1.2c0.9,0,1.5-0.6,1.7-1.1c0-0.1,0.1-0.3,0.1-0.4
		V16.8L66.9,16.8z M68.1,18.7c0,0.6,0,1.2,0.1,1.6h-1.1L67,19.4h0c-0.4,0.5-1.1,1-2.1,1c-1.4,0-2.1-1-2.1-1.9c0-1.6,1.4-2.5,4-2.5
		v-0.1c0-0.6-0.2-1.6-1.5-1.6c-0.6,0-1.3,0.2-1.8,0.5L63.3,14c0.6-0.3,1.4-0.6,2.2-0.6c2.1,0,2.6,1.4,2.6,2.8V18.7L68.1,18.7z"/>
	<path fill="#FFFFFF" d="M70,20.3v-6.7h1.2v6.7H70L70,20.3z M70.6,12.3c-0.5,0-0.8-0.4-0.8-0.8c0-0.4,0.3-0.8,0.8-0.8
		c0.5,0,0.8,0.3,0.8,0.8C71.4,11.9,71.1,12.3,70.6,12.3L70.6,12.3L70.6,12.3z"/>
	<polygon fill="#FFFFFF" points="73.2,10.4 74.4,10.4 74.4,20.3 73.2,20.3 73.2,10.4 	"/>
	<path fill="#FFFFFF" d="M79.9,16.8c-1.3,0-2.9,0.2-2.9,1.5c0,0.8,0.5,1.2,1.1,1.2c0.9,0,1.5-0.6,1.7-1.1c0-0.1,0.1-0.3,0.1-0.4
		V16.8L79.9,16.8z M81.1,18.7c0,0.6,0,1.2,0.1,1.6h-1.1L80,19.4h0c-0.4,0.5-1.1,1-2.1,1c-1.4,0-2.1-1-2.1-1.9c0-1.6,1.4-2.5,4-2.5
		v-0.1c0-0.6-0.2-1.6-1.5-1.6c-0.6,0-1.3,0.2-1.8,0.5L76.3,14c0.6-0.3,1.4-0.6,2.2-0.6c2.1,0,2.6,1.4,2.6,2.8V18.7L81.1,18.7z"/>
	<path fill="#FFFFFF" d="M84.2,17.6c0,0.2,0,0.3,0,0.4c0.2,0.8,1,1.4,1.8,1.4c1.3,0,2-1,2-2.6c0-1.4-0.7-2.5-2-2.5
		c-0.8,0-1.6,0.6-1.9,1.5c0,0.2-0.1,0.3-0.1,0.5V17.6L84.2,17.6z M83,10.4h1.2v4.2h0c0.4-0.8,1.2-1.2,2.3-1.2c1.7,0,2.8,1.4,2.8,3.4
		c0,2.4-1.5,3.6-3,3.6c-1,0-1.7-0.4-2.3-1.3h0L84,20.3H83c0-0.5,0.1-1.1,0.1-1.7V10.4L83,10.4z"/>
	<polygon fill="#FFFFFF" points="90.9,10.4 92.1,10.4 92.1,20.3 90.9,20.3 90.9,10.4 	"/>
	<path fill="#FFFFFF" d="M98.3,16.2c0-0.8-0.3-2-1.7-2c-1.2,0-1.8,1.1-1.9,2H98.3L98.3,16.2z M94.8,17.1c0,1.7,1.1,2.3,2.3,2.3
		c0.9,0,1.4-0.2,1.9-0.3l0.2,0.9c-0.4,0.2-1.2,0.4-2.3,0.4c-2.1,0-3.3-1.4-3.3-3.4c0-2,1.2-3.6,3.2-3.6c2.2,0,2.8,1.9,2.8,3.2
		c0,0.3,0,0.4,0,0.6L94.8,17.1L94.8,17.1z"/>
	<path fill="#FFFFFF" d="M106.6,19.5c1.2,0,2-1.1,2-2.6c0-1.1-0.6-2.6-2-2.6c-1.4,0-2.1,1.3-2.1,2.6
		C104.6,18.4,105.4,19.5,106.6,19.5L106.6,19.5L106.6,19.5z M106.6,20.4c-1.8,0-3.2-1.3-3.2-3.5c0-2.3,1.5-3.6,3.3-3.6
		c1.9,0,3.2,1.4,3.2,3.4C109.9,19.3,108.2,20.4,106.6,20.4L106.6,20.4L106.6,20.4z"/>
	<path fill="#FFFFFF" d="M111.4,15.4c0-0.7,0-1.3-0.1-1.8h1.1l0.1,1.1h0c0.3-0.6,1.1-1.3,2.2-1.3c0.9,0,2.4,0.6,2.4,2.9v4h-1.2v-3.9
		c0-1.1-0.4-2-1.6-2c-0.8,0-1.4,0.6-1.6,1.3c-0.1,0.2-0.1,0.4-0.1,0.6v4.1h-1.2V15.4L111.4,15.4z"/>
	<path fill="#FFFFFF" d="M123.4,11.9v1.6h1.8v0.9h-1.8v3.6c0,0.8,0.2,1.3,0.9,1.3c0.3,0,0.5,0,0.7-0.1l0.1,0.9
		c-0.2,0.1-0.6,0.2-1.1,0.2c-0.6,0-1-0.2-1.3-0.5c-0.3-0.4-0.5-1-0.5-1.8v-3.7h-1v-0.9h1v-1.2L123.4,11.9L123.4,11.9z"/>
	<path fill="#FFFFFF" d="M126.5,10.4h1.2v4.2h0c0.2-0.3,0.5-0.7,0.9-0.9c0.4-0.2,0.8-0.3,1.3-0.3c0.9,0,2.3,0.6,2.3,2.9v4H131v-3.9
		c0-1.1-0.4-2-1.6-2c-0.8,0-1.4,0.6-1.6,1.2c-0.1,0.2-0.1,0.3-0.1,0.6v4.1h-1.2V10.4L126.5,10.4z"/>
	<path fill="#FFFFFF" d="M138.4,16.2c0-0.8-0.3-2-1.7-2c-1.3,0-1.8,1.1-1.9,2H138.4L138.4,16.2z M134.8,17.1c0,1.7,1.1,2.3,2.3,2.3
		c0.9,0,1.4-0.2,1.9-0.3l0.2,0.9c-0.4,0.2-1.2,0.4-2.3,0.4c-2.1,0-3.3-1.4-3.3-3.4c0-2,1.2-3.6,3.2-3.6c2.2,0,2.8,1.9,2.8,3.2
		c0,0.3,0,0.4,0,0.6L134.8,17.1L134.8,17.1z"/>
	<path fill="#FFFFFF" d="M143.9,20.3v-6.7h1.2v6.7H143.9L143.9,20.3z M144.5,12.3c-0.5,0-0.8-0.4-0.8-0.8c0-0.4,0.3-0.8,0.8-0.8
		c0.5,0,0.8,0.3,0.8,0.8C145.3,11.9,145,12.3,144.5,12.3L144.5,12.3L144.5,12.3z"/>
	<path fill="#FFFFFF" d="M148.3,15.5c0.3,0.1,0.6,0.1,1,0.1c1.5,0,2.4-0.7,2.4-2c0-1.3-0.9-1.8-2.2-1.8c-0.5,0-0.9,0.1-1.1,0.1V15.5
		L148.3,15.5z M147.1,11c0.6-0.1,1.3-0.2,2.3-0.2c1.2,0,2.1,0.3,2.6,0.8c0.5,0.4,0.8,1.1,0.8,2c0,0.8-0.3,1.5-0.7,2
		c-0.6,0.7-1.7,1-2.9,1c-0.4,0-0.7,0-1-0.1v3.8h-1.2V11L147.1,11z"/>
	<path fill="#FFFFFF" d="M154.3,10.4h1.2v4.2h0c0.2-0.3,0.5-0.7,0.9-0.9c0.4-0.2,0.8-0.3,1.3-0.3c0.9,0,2.4,0.6,2.4,2.9v4h-1.2v-3.9
		c0-1.1-0.4-2-1.6-2c-0.8,0-1.4,0.6-1.6,1.2c-0.1,0.2-0.1,0.3-0.1,0.6v4.1h-1.2V10.4L154.3,10.4z"/>
	<path fill="#FFFFFF" d="M164.8,19.5c1.2,0,2-1.1,2-2.6c0-1.1-0.6-2.6-2-2.6c-1.4,0-2.1,1.3-2.1,2.6
		C162.7,18.4,163.6,19.5,164.8,19.5L164.8,19.5L164.8,19.5z M164.7,20.4c-1.8,0-3.2-1.3-3.2-3.5c0-2.3,1.5-3.6,3.3-3.6
		c1.9,0,3.2,1.4,3.2,3.4C168.1,19.3,166.3,20.4,164.7,20.4L164.7,20.4L164.7,20.4z"/>
	<path fill="#FFFFFF" d="M169.6,15.4c0-0.7,0-1.3-0.1-1.8h1.1l0.1,1.1h0c0.3-0.6,1.1-1.3,2.2-1.3c0.9,0,2.4,0.6,2.4,2.9v4h-1.2v-3.9
		c0-1.1-0.4-2-1.6-2c-0.8,0-1.4,0.6-1.6,1.3c-0.1,0.2-0.1,0.4-0.1,0.6v4.1h-1.2V15.4L169.6,15.4z"/>
	<path fill="#FFFFFF" d="M181.5,16.2c0-0.8-0.3-2-1.7-2c-1.3,0-1.8,1.1-1.9,2H181.5L181.5,16.2z M177.9,17.1c0,1.7,1.1,2.3,2.3,2.3
		c0.9,0,1.4-0.2,1.9-0.3l0.2,0.9c-0.4,0.2-1.2,0.4-2.3,0.4c-2.1,0-3.3-1.4-3.3-3.4c0-2,1.2-3.6,3.2-3.6c2.2,0,2.8,1.9,2.8,3.2
		c0,0.3,0,0.4,0,0.6L177.9,17.1L177.9,17.1z"/>
	<path fill="#FFFFFF" d="M58.3,30.6c0.3,1.1,0.6,2.2,1,3.4l2.2,6.4h-6.3l2.2-6.5C57.7,32.9,58,31.8,58.3,30.6L58.3,30.6z M56.3,26.6
		l-8.2,24.3h3.8l2.5-7.5h8l2.5,7.5h3.9l-8.3-24.3H56.3L56.3,26.6z"/>
	<path fill="#FFFFFF" d="M78.5,36c3.3,0,4.7,3,4.7,6c0,3.9-1.9,6.3-4.9,6.3c-2.1,0-3.8-1.4-4.3-3.4c-0.1-0.3-0.1-0.7-0.1-1.2v-3
		c0-0.3,0.1-0.6,0.1-0.9c0-0.1,0-0.2,0.1-0.3C74.6,37.4,76.4,36,78.5,36L78.5,36z M79.4,32.9c-2.5,0-4.5,1-5.8,2.8l-0.1-2.4H70
		l0,0.3c0.1,1.5,0.1,3.2,0.1,5.5v18.7h3.7v-8.7c1.1,1.4,3,2.2,5,2.2c2.1,0,4.1-0.8,5.6-2.4c1.6-1.7,2.5-4.1,2.5-7.1
		c0-2.6-0.7-4.8-2.1-6.5C83.4,33.8,81.5,32.9,79.4,32.9L79.4,32.9z"/>
	<path fill="#FFFFFF" d="M97.4,36c3.3,0,4.7,3,4.7,6c0,3.9-1.9,6.3-4.9,6.3c-2.1,0-3.8-1.4-4.3-3.4c-0.1-0.3-0.1-0.7-0.1-1.2v-3
		c0-0.3,0.1-0.6,0.1-0.9c0-0.1,0-0.2,0.1-0.3C93.5,37.4,95.3,36,97.4,36L97.4,36z M98.3,32.9c-2.5,0-4.5,1-5.8,2.8l-0.1-2.4H89
		l0,0.3c0.1,1.5,0.1,3.2,0.1,5.5v18.7h3.7v-8.7c1.1,1.4,3,2.2,5,2.2c2.1,0,4.1-0.8,5.6-2.4c1.6-1.7,2.5-4.1,2.5-7.1
		c0-2.6-0.7-4.8-2.1-6.5C102.3,33.8,100.4,32.9,98.3,32.9L98.3,32.9z"/>
	<path fill="#FFFFFF" d="M122,36.9c-3.4-1.3-4.5-2.4-4.5-4.3c0-1.6,1.3-3.3,4.2-3.3c2.4,0,3.9,0.8,4.3,1.1l0.3,0.2l1-3.1l-0.2-0.1
		c-0.6-0.4-2.4-1.2-5.3-1.2c-4.7,0-8,2.8-8,6.7c0,3.2,2,5.4,6.4,7c3.1,1.2,4.3,2.4,4.3,4.4c0,2.3-1.8,3.8-4.7,3.8
		c-1.9,0-3.8-0.5-5.3-1.5l-0.3-0.2l-1,3.1l0.2,0.1c1.4,0.9,4,1.6,6.2,1.6c6.3,0,8.6-3.8,8.6-7.1C128.2,40.7,126.4,38.6,122,36.9
		L122,36.9z"/>
	<path fill="#FFFFFF" d="M134.8,29.1l-3.6,1.1v3.1h-2.6v2.9h2.6v9c0,2.2,0.4,3.7,1.3,4.7c0.8,0.9,2.1,1.4,3.6,1.4
		c1.4,0,2.4-0.3,2.8-0.4l0.2-0.1l-0.2-2.9l-0.4,0.1c-0.5,0.1-0.9,0.2-1.7,0.2c-1.4,0-2-0.9-2-3v-8.9h4.4v-2.9h-4.4V29.1L134.8,29.1z
		"/>
	<path fill="#FFFFFF" d="M148.2,35.8c3.3,0,4.8,3.2,4.8,6.2c0,3.7-2.1,6.4-4.9,6.4h0c-2.8,0-4.8-2.6-4.8-6.2
		C143.3,39,144.8,35.8,148.2,35.8L148.2,35.8z M148.3,32.9c-5.1,0-8.7,3.8-8.7,9.3c0,5.3,3.5,9,8.4,9h0c4.2,0,8.7-2.9,8.7-9.4
		c0-2.6-0.8-4.9-2.3-6.5C152.9,33.8,150.8,32.9,148.3,32.9L148.3,32.9z"/>
	<path fill="#FFFFFF" d="M168.1,33.1l-0.2-0.1c-0.3-0.1-0.6-0.1-0.9-0.1c-1.9,0-3.6,1.1-4.6,3l-0.1-2.6h-3.3l0,0.3
		c0.1,1.5,0.1,3.1,0.1,5.3l0,12h3.7v-9.4c0-0.5,0-1,0.1-1.4c0.4-2.2,1.9-3.7,3.9-3.7c0.4,0,0.7,0,1,0.1l0.4,0V33.1L168.1,33.1z"/>
	<path fill="#FFFFFF" d="M176.1,35.7c1.1,0,2,0.3,2.7,1c1.1,1.1,1.2,2.7,1.3,3.4h-8.4C172,38,173.3,35.7,176.1,35.7L176.1,35.7z
		 M176.3,32.9c-4.9,0-8.3,3.9-8.3,9.5c0,5.4,3.4,8.9,8.7,8.9c2.8,0,4.7-0.6,5.8-1.1l0.2-0.1l-0.7-2.7l-0.3,0.1
		c-1,0.4-2.3,0.8-4.6,0.8c-1.6,0-5.3-0.5-5.5-5.3l11.9,0l0-0.2c0.1-0.4,0.1-0.9,0.1-1.5C183.6,37.4,181.7,32.9,176.3,32.9
		L176.3,32.9z"/>
</g>
</svg>
