<?xml version="1.0" encoding="utf-8"?>
<!-- Generator: Adobe Illustrator 17.1.0, SVG Export Plug-In . SVG Version: 6.00 Build 0)  -->
<!DOCTYPE svg PUBLIC "-//W3C//DTD SVG 1.1//EN" "http://www.w3.org/Graphics/SVG/1.1/DTD/svg11.dtd">
<svg version="1.1" id="Слой_1" xmlns="http://www.w3.org/2000/svg" xmlns:xlink="http://www.w3.org/1999/xlink" x="0px" y="0px"
	 viewBox="0 0 191 62.5" enable-background="new 0 0 191 62.5" xml:space="preserve">
<g>
	<path fill="#CBBBA0" d="M191,54c0,4.7-3.8,8.4-8.4,8.4H8.4C3.8,62.5,0,58.7,0,54V8.4C0,3.8,3.8,0,8.4,0h174.1
		c4.7,0,8.4,3.8,8.4,8.4V54L191,54z"/>
	<path fill="#FFFFFF" d="M33.7,43.8h-17V18.4h17V43.8L33.7,43.8z M25.2,49.4c-1.2,0-2.2-1-2.2-2.2c0-1.2,1-2.2,2.2-2.2
		c1.2,0,2.2,1,2.2,2.2C27.5,48.4,26.5,49.4,25.2,49.4L25.2,49.4z M33,10.7H17.4c-1.9,0-3.4,1.5-3.4,3.4v34.5c0,1.9,1.5,3.4,3.4,3.4
		H33c1.9,0,3.4-1.5,3.4-3.4V14.1C36.4,12.2,34.9,10.7,33,10.7L33,10.7z"/>
	<path fill="#FFFFFF" d="M52.1,15.9l-0.9-2.6c-0.2-0.6-0.3-1.1-0.5-1.7h0c-0.1,0.5-0.3,1.1-0.4,1.6l-0.9,2.6H52.1L52.1,15.9z
		 M49.1,16.8l-0.9,2.9h-1.2l3.1-9.1h1.4l3.1,9.1h-1.3l-1-2.9H49.1L49.1,16.8z"/>
	<path fill="#FFFFFF" d="M55.8,13.2l1.3,3.7c0.2,0.6,0.4,1.1,0.5,1.7h0c0.1-0.5,0.3-1.1,0.6-1.7l1.3-3.7h1.2l-2.6,6.5H57l-2.5-6.5
		H55.8L55.8,13.2z"/>
	<path fill="#FFFFFF" d="M65,16.4c-1.3,0-2.8,0.2-2.8,1.5c0,0.8,0.5,1.1,1.1,1.1c0.9,0,1.4-0.5,1.6-1.1c0-0.1,0.1-0.3,0.1-0.4V16.4
		L65,16.4z M66.2,18.1c0,0.6,0,1.1,0.1,1.6h-1.1l-0.1-0.8h0c-0.4,0.5-1.1,1-2,1c-1.3,0-2-0.9-2-1.9c0-1.6,1.4-2.4,3.9-2.4v-0.1
		c0-0.5-0.1-1.5-1.5-1.5c-0.6,0-1.3,0.2-1.7,0.5l-0.3-0.8c0.5-0.3,1.3-0.6,2.2-0.6c2,0,2.5,1.4,2.5,2.7V18.1L66.2,18.1z"/>
	<path fill="#FFFFFF" d="M68,19.7v-6.5h1.2v6.5H68L68,19.7z M68.6,12c-0.4,0-0.7-0.4-0.7-0.8c0-0.4,0.3-0.8,0.8-0.8
		c0.5,0,0.8,0.3,0.8,0.8C69.4,11.6,69.1,12,68.6,12L68.6,12L68.6,12z"/>
	<polygon fill="#FFFFFF" points="71.1,10.1 72.3,10.1 72.3,19.7 71.1,19.7 71.1,10.1 	"/>
	<path fill="#FFFFFF" d="M77.6,16.4c-1.3,0-2.8,0.2-2.8,1.5c0,0.8,0.5,1.1,1.1,1.1c0.9,0,1.4-0.5,1.6-1.1c0-0.1,0.1-0.3,0.1-0.4
		V16.4L77.6,16.4z M78.8,18.1c0,0.6,0,1.1,0.1,1.6h-1.1l-0.1-0.8h0c-0.4,0.5-1.1,1-2,1c-1.3,0-2-0.9-2-1.9c0-1.6,1.4-2.4,3.9-2.4
		v-0.1c0-0.5-0.1-1.5-1.5-1.5c-0.6,0-1.3,0.2-1.7,0.5l-0.3-0.8c0.5-0.3,1.3-0.6,2.2-0.6c2,0,2.5,1.4,2.5,2.7V18.1L78.8,18.1z"/>
	<path fill="#FFFFFF" d="M81.8,17.1c0,0.1,0,0.3,0,0.4c0.2,0.8,0.9,1.4,1.8,1.4c1.3,0,2-1,2-2.5c0-1.3-0.7-2.4-1.9-2.4
		c-0.8,0-1.6,0.6-1.8,1.5c0,0.1-0.1,0.3-0.1,0.5V17.1L81.8,17.1z M80.6,10.1h1.2v4.1h0c0.4-0.7,1.2-1.2,2.2-1.2
		c1.6,0,2.8,1.4,2.8,3.3c0,2.4-1.5,3.5-2.9,3.5c-0.9,0-1.7-0.4-2.2-1.2h0l-0.1,1.1h-1c0-0.4,0.1-1.1,0.1-1.7V10.1L80.6,10.1z"/>
	<polygon fill="#FFFFFF" points="88.3,10.1 89.5,10.1 89.5,19.7 88.3,19.7 88.3,10.1 	"/>
	<path fill="#FFFFFF" d="M95.5,15.8c0-0.7-0.3-1.9-1.6-1.9c-1.2,0-1.7,1.1-1.8,1.9H95.5L95.5,15.8z M92,16.6c0,1.6,1,2.3,2.2,2.3
		c0.9,0,1.4-0.1,1.8-0.3l0.2,0.8c-0.4,0.2-1.1,0.4-2.2,0.4c-2,0-3.2-1.3-3.2-3.3c0-2,1.2-3.5,3.1-3.5c2.1,0,2.7,1.9,2.7,3.1
		c0,0.2,0,0.4,0,0.6L92,16.6L92,16.6z"/>
	<path fill="#FFFFFF" d="M103.6,19c1.1,0,2-1.1,2-2.6c0-1.1-0.6-2.5-2-2.5c-1.4,0-2,1.3-2,2.5C101.6,17.9,102.4,19,103.6,19
		L103.6,19L103.6,19z M103.5,19.8c-1.8,0-3.1-1.3-3.1-3.4c0-2.2,1.4-3.5,3.2-3.5c1.9,0,3.1,1.4,3.1,3.4
		C106.8,18.8,105.1,19.8,103.5,19.8L103.5,19.8L103.5,19.8z"/>
	<path fill="#FFFFFF" d="M108.2,14.9c0-0.7,0-1.2-0.1-1.8h1.1l0.1,1.1h0c0.3-0.6,1.1-1.2,2.2-1.2c0.9,0,2.3,0.5,2.3,2.8v3.9h-1.2
		v-3.8c0-1.1-0.4-1.9-1.5-1.9c-0.8,0-1.4,0.6-1.6,1.2c-0.1,0.1-0.1,0.4-0.1,0.6v3.9h-1.2V14.9L108.2,14.9z"/>
	<path fill="#FFFFFF" d="M119.9,11.6v1.6h1.7v0.9h-1.7v3.5c0,0.8,0.2,1.3,0.9,1.3c0.3,0,0.5,0,0.7-0.1l0.1,0.9
		c-0.2,0.1-0.6,0.2-1.1,0.2c-0.6,0-1-0.2-1.3-0.5c-0.3-0.4-0.5-0.9-0.5-1.7v-3.6h-1v-0.9h1V12L119.9,11.6L119.9,11.6z"/>
	<path fill="#FFFFFF" d="M122.8,10.1h1.2v4.1h0c0.2-0.3,0.5-0.6,0.9-0.8c0.4-0.2,0.8-0.3,1.2-0.3c0.9,0,2.3,0.5,2.3,2.8v3.9h-1.2
		v-3.8c0-1.1-0.4-1.9-1.5-1.9c-0.8,0-1.4,0.5-1.6,1.2c-0.1,0.2-0.1,0.3-0.1,0.6v3.9h-1.2V10.1L122.8,10.1z"/>
	<path fill="#FFFFFF" d="M134.4,15.8c0-0.7-0.3-1.9-1.6-1.9c-1.2,0-1.7,1.1-1.8,1.9H134.4L134.4,15.8z M130.9,16.6
		c0,1.6,1,2.3,2.2,2.3c0.9,0,1.4-0.1,1.8-0.3l0.2,0.8c-0.4,0.2-1.1,0.4-2.2,0.4c-2,0-3.2-1.3-3.2-3.3c0-2,1.2-3.5,3.1-3.5
		c2.1,0,2.7,1.9,2.7,3.1c0,0.2,0,0.4,0,0.6L130.9,16.6L130.9,16.6z"/>
	<path fill="#FFFFFF" d="M139.8,19.7v-6.5h1.2v6.5H139.8L139.8,19.7z M140.3,12c-0.4,0-0.7-0.4-0.7-0.8c0-0.4,0.3-0.8,0.8-0.8
		c0.5,0,0.8,0.3,0.8,0.8C141.1,11.6,140.8,12,140.3,12L140.3,12L140.3,12z"/>
	<path fill="#FFFFFF" d="M144.1,15.1c0.3,0.1,0.6,0.1,1,0.1c1.4,0,2.3-0.7,2.3-1.9c0-1.2-0.9-1.8-2.1-1.8c-0.5,0-0.9,0.1-1.1,0.1
		V15.1L144.1,15.1z M142.9,10.7c0.6-0.1,1.3-0.2,2.3-0.2c1.2,0,2,0.3,2.6,0.8c0.5,0.4,0.8,1.1,0.8,1.9c0,0.8-0.2,1.5-0.7,1.9
		c-0.6,0.7-1.6,1-2.8,1c-0.4,0-0.7,0-0.9-0.1v3.6h-1.2V10.7L142.9,10.7z"/>
	<path fill="#FFFFFF" d="M149.9,10.1h1.2v4.1h0c0.2-0.3,0.5-0.6,0.9-0.8c0.4-0.2,0.8-0.3,1.2-0.3c0.9,0,2.3,0.5,2.3,2.8v3.9h-1.2
		v-3.8c0-1.1-0.4-1.9-1.5-1.9c-0.8,0-1.4,0.5-1.6,1.2c-0.1,0.2-0.1,0.3-0.1,0.6v3.9h-1.2V10.1L149.9,10.1z"/>
	<path fill="#FFFFFF" d="M160,19c1.1,0,2-1.1,2-2.6c0-1.1-0.6-2.5-2-2.5c-1.4,0-2,1.3-2,2.5C158.1,17.9,158.9,19,160,19L160,19
		L160,19z M160,19.8c-1.8,0-3.1-1.3-3.1-3.4c0-2.2,1.4-3.5,3.2-3.5c1.9,0,3.1,1.4,3.1,3.4C163.3,18.8,161.6,19.8,160,19.8L160,19.8
		L160,19.8z"/>
	<path fill="#FFFFFF" d="M164.7,14.9c0-0.7,0-1.2-0.1-1.8h1.1l0.1,1.1h0c0.3-0.6,1.1-1.2,2.2-1.2c0.9,0,2.3,0.5,2.3,2.8v3.9h-1.2
		v-3.8c0-1.1-0.4-1.9-1.5-1.9c-0.8,0-1.4,0.6-1.6,1.2c-0.1,0.1-0.1,0.4-0.1,0.6v3.9h-1.2V14.9L164.7,14.9z"/>
	<path fill="#FFFFFF" d="M176.3,15.8c0-0.7-0.3-1.9-1.6-1.9c-1.2,0-1.7,1.1-1.8,1.9H176.3L176.3,15.8z M172.8,16.6
		c0,1.6,1,2.3,2.2,2.3c0.9,0,1.4-0.1,1.8-0.3l0.2,0.8c-0.4,0.2-1.1,0.4-2.2,0.4c-2,0-3.2-1.3-3.2-3.3c0-2,1.2-3.5,3.1-3.5
		c2.1,0,2.7,1.9,2.7,3.1c0,0.2,0,0.4,0,0.6L172.8,16.6L172.8,16.6z"/>
	<path fill="#FFFFFF" d="M56.6,29.7c0.3,1.1,0.6,2.1,0.9,3.3l2.2,6.3h-6.1l2.1-6.3C56,32,56.3,30.9,56.6,29.7L56.6,29.7z M54.7,25.9
		l-8,23.6h3.7l2.4-7.2h7.8l2.5,7.2h3.8l-8-23.6H54.7L54.7,25.9z"/>
	<path fill="#FFFFFF" d="M76.2,34.9c3.2,0,4.6,2.9,4.6,5.9c0,3.8-1.8,6.1-4.7,6.1c-2,0-3.7-1.4-4.2-3.3c-0.1-0.3-0.1-0.7-0.1-1.2
		v-2.9c0-0.3,0.1-0.6,0.1-0.9c0-0.1,0-0.2,0.1-0.3C72.5,36.4,74.2,34.9,76.2,34.9L76.2,34.9z M77.1,32c-2.4,0-4.4,0.9-5.7,2.7
		l-0.1-2.3H68l0,0.3c0.1,1.5,0.1,3.1,0.1,5.4v18.2h3.6v-8.5c1.1,1.3,2.9,2.1,4.9,2.1c2.1,0,4-0.8,5.4-2.3c1.6-1.7,2.4-4,2.4-6.9
		c0-2.5-0.7-4.7-2.1-6.3C81,32.8,79.2,32,77.1,32L77.1,32z"/>
	<path fill="#FFFFFF" d="M94.6,34.9c3.2,0,4.6,2.9,4.6,5.9c0,3.8-1.8,6.1-4.7,6.1c-2,0-3.7-1.4-4.2-3.3c-0.1-0.3-0.1-0.7-0.1-1.2
		v-2.9c0-0.3,0.1-0.6,0.1-0.9c0-0.1,0-0.2,0.1-0.3C90.8,36.4,92.6,34.9,94.6,34.9L94.6,34.9z M95.5,32c-2.4,0-4.4,0.9-5.7,2.7
		l-0.1-2.3h-3.3l0,0.3c0.1,1.5,0.1,3.1,0.1,5.4v18.2h3.6v-8.5c1.1,1.3,2.9,2.1,4.9,2.1c2.1,0,4-0.8,5.4-2.3c1.6-1.7,2.4-4,2.4-6.9
		c0-2.5-0.7-4.7-2.1-6.3C99.4,32.8,97.5,32,95.5,32L95.5,32z"/>
	<path fill="#FFFFFF" d="M118.5,35.9c-3.3-1.3-4.4-2.3-4.4-4.2c0-1.6,1.3-3.2,4.1-3.2c2.3,0,3.8,0.8,4.2,1.1l0.3,0.2l1-3l-0.2-0.1
		c-0.6-0.4-2.3-1.2-5.2-1.2c-4.6,0-7.7,2.7-7.7,6.5c0,3.1,2,5.3,6.3,6.8c3,1.1,4.2,2.3,4.2,4.3c0,2.2-1.7,3.6-4.5,3.6
		c-1.8,0-3.7-0.5-5.1-1.5l-0.3-0.2l-1,3l0.2,0.1c1.3,0.9,3.9,1.5,6,1.5c6.1,0,8.3-3.7,8.3-6.9C124.5,39.6,122.8,37.5,118.5,35.9
		L118.5,35.9z"/>
	<path fill="#FFFFFF" d="M130.9,28.3l-3.5,1.1v3h-2.6v2.9h2.6v8.7c0,2.1,0.4,3.6,1.2,4.5c0.8,0.9,2,1.4,3.5,1.4
		c1.3,0,2.3-0.3,2.8-0.4l0.2-0.1l-0.2-2.9l-0.3,0.1c-0.5,0.1-0.9,0.2-1.7,0.2c-1.4,0-2-0.9-2-2.9v-8.6h4.3v-2.9h-4.3V28.3
		L130.9,28.3z"/>
	<path fill="#FFFFFF" d="M144,34.8c3.2,0,4.7,3.1,4.7,6c0,3.6-2,6.2-4.7,6.2h0c-2.7,0-4.7-2.6-4.7-6.1
		C139.2,37.9,140.7,34.8,144,34.8L144,34.8z M144.1,32c-5,0-8.5,3.7-8.5,9.1c0,5.2,3.4,8.8,8.2,8.8h0c4.1,0,8.5-2.8,8.5-9.1
		c0-2.5-0.8-4.7-2.3-6.3C148.6,32.8,146.5,32,144.1,32L144.1,32z"/>
	<path fill="#FFFFFF" d="M163.3,32.1l-0.2-0.1c-0.3-0.1-0.6-0.1-0.9-0.1c-1.9,0-3.5,1.1-4.5,2.9l-0.1-2.5h-3.2l0,0.3
		c0.1,1.4,0.1,3,0.1,5.1l0,11.7h3.6v-9.1c0-0.5,0-1,0.1-1.4c0.4-2.2,1.9-3.6,3.8-3.6c0.4,0,0.7,0,1,0.1l0.4,0V32.1L163.3,32.1z"/>
	<path fill="#FFFFFF" d="M171,34.7c1.1,0,2,0.3,2.6,1c1,1,1.2,2.6,1.2,3.3h-8.1C167.1,36.9,168.4,34.7,171,34.7L171,34.7z
		 M171.3,31.9c-4.7,0-8.1,3.8-8.1,9.2c0,5.2,3.3,8.6,8.4,8.6c2.7,0,4.6-0.6,5.6-1.1l0.2-0.1l-0.7-2.7l-0.3,0.1
		c-1,0.4-2.3,0.8-4.5,0.8c-1.5,0-5.1-0.5-5.3-5.2l11.5,0l0-0.2c0.1-0.4,0.1-0.9,0.1-1.5C178.3,36.3,176.5,31.9,171.3,31.9
		L171.3,31.9z"/>
</g>
</svg>
