<?xml version="1.0" encoding="utf-8"?>
<!-- Generator: Adobe Illustrator 17.1.0, SVG Export Plug-In . SVG Version: 6.00 Build 0)  -->
<!DOCTYPE svg PUBLIC "-//W3C//DTD SVG 1.1//EN" "http://www.w3.org/Graphics/SVG/1.1/DTD/svg11.dtd">
<svg version="1.1" id="Слой_1" xmlns="http://www.w3.org/2000/svg" xmlns:xlink="http://www.w3.org/1999/xlink" x="0px" y="0px"
	 viewBox="0 0 57.8 57.8" enable-background="new 0 0 57.8 57.8" xml:space="preserve">
<g>
	<path fill="#6DA11E" d="M28.9,0C12.9,0,0,12.9,0,28.9c0,16,12.9,28.9,28.9,28.9c16,0,28.9-12.9,28.9-28.9C57.8,13,44.9,0,28.9,0
		L28.9,0z M28.9,52.4c-13,0-23.5-10.5-23.5-23.5c0-13,10.5-23.5,23.5-23.5s23.5,10.5,23.5,23.5C52.4,41.9,41.9,52.4,28.9,52.4
		L28.9,52.4z M40.3,16.6c-1.2-0.7-2.8-0.3-3.5,1L27.1,35l-5.4-6.6c-1-1.1-2.3-1.7-3.5-1c-1.2,0.7-1.7,2.5-0.9,3.6l7.5,9.1
		c0.6,0.7,1.2,1.2,1.9,1.3l0,0l0.1,0c0.2,0,2.4,0.4,3.4-1.3l11.1-20C41.9,19,41.5,17.4,40.3,16.6L40.3,16.6z M40.3,16.6"/>
</g>
</svg>
