<?xml version="1.0" encoding="utf-8"?>
<!-- Generator: Adobe Illustrator 17.1.0, SVG Export Plug-In . SVG Version: 6.00 Build 0)  -->
<!DOCTYPE svg PUBLIC "-//W3C//DTD SVG 1.1//EN" "http://www.w3.org/Graphics/SVG/1.1/DTD/svg11.dtd">
<svg version="1.1" id="Слой_1" xmlns="http://www.w3.org/2000/svg" xmlns:xlink="http://www.w3.org/1999/xlink" x="0px" y="0px"
	 viewBox="0 0 381.1 82" enable-background="new 0 0 381.1 82" xml:space="preserve">
<g>
	<polygon fill-rule="evenodd" clip-rule="evenodd" fill="#F4DFBD" points="0,71.6 381.1,71.6 362.4,43.8 381.1,16.1 0,16.1 
		16.1,43.8 	"/>
	<path fill="#EDD5B2" d="M47.9,15.9h11.3c-2.9,3.8-5.7,6.7-5.7,6.7S50.8,19.7,47.9,15.9z"/>
	<g>
		
			<image overflow="visible" opacity="0.75" width="68" height="80" xlink:href="2A15F63A.png"  transform="matrix(1 0 0 1 28.5856 1.6802)">
		</image>
		<g>
			<g>
				<g>
					<g>
						<g>
							<g>
								<path fill-rule="evenodd" clip-rule="evenodd" fill="#589844" d="M53,25.6V5.8c0,0,5-3.8,9.3,1C66.6,11.6,53,25.6,53,25.6z"
									/>
								<path fill-rule="evenodd" clip-rule="evenodd" fill="#78BC35" d="M53,25.6V5.8c0,0-5-3.8-9.3,1C39.5,11.6,53,25.6,53,25.6z"
									/>
							</g>
							<g>
								<path fill-rule="evenodd" clip-rule="evenodd" fill="#589844" d="M53.7,25.7h20.4c0,0,3.9,4.9-1,9
									C68.1,38.9,53.7,25.7,53.7,25.7z"/>
								<path fill-rule="evenodd" clip-rule="evenodd" fill="#78BC35" d="M53.7,25.7h20.4c0,0,3.9-4.9-1-9
									C68.1,12.5,53.7,25.7,53.7,25.7z"/>
							</g>
							<g>
								<path fill-rule="evenodd" clip-rule="evenodd" fill="#589844" d="M52.6,25.6H32.3c0,0-3.9-4.9,1-9
									C38.2,12.4,52.6,25.6,52.6,25.6z"/>
								<path fill-rule="evenodd" clip-rule="evenodd" fill="#78BC35" d="M52.6,25.6H32.3c0,0-3.9,4.9,1,9
									C38.2,38.7,52.6,25.6,52.6,25.6z"/>
							</g>
							<g>
								<path fill-rule="evenodd" clip-rule="evenodd" fill="#589844" d="M53,25.7v19.8c0,0-5,3.8-9.3-1C39.5,39.7,53,25.7,53,25.7z
									"/>
								<path fill-rule="evenodd" clip-rule="evenodd" fill="#78BC35" d="M53,25.7v19.8c0,0,5,3.8,9.3-1C66.6,39.7,53,25.7,53,25.7z
									"/>
							</g>
						</g>
					</g>
					<g>
						<g>
							<g>
								<path fill-rule="evenodd" clip-rule="evenodd" fill="#589844" d="M71.6,60.9V46.2c0,0,3.7-2.8,6.9,0.7
									C81.7,50.5,71.6,60.9,71.6,60.9z"/>
								<path fill-rule="evenodd" clip-rule="evenodd" fill="#78BC35" d="M71.6,60.9V46.2c0,0-3.7-2.8-6.9,0.7
									C61.5,50.5,71.6,60.9,71.6,60.9z"/>
							</g>
							<g>
								<path fill-rule="evenodd" clip-rule="evenodd" fill="#589844" d="M72.1,61h15.1c0,0,2.9,3.6-0.8,6.7
									C82.8,70.8,72.1,61,72.1,61z"/>
								<path fill-rule="evenodd" clip-rule="evenodd" fill="#78BC35" d="M72.1,61h15.1c0,0,2.9-3.6-0.8-6.7
									C82.8,51.2,72.1,61,72.1,61z"/>
							</g>
							<g>
								<path fill-rule="evenodd" clip-rule="evenodd" fill="#589844" d="M71.3,60.9H56.1c0,0-2.9-3.6,0.8-6.7
									C60.6,51.1,71.3,60.9,71.3,60.9z"/>
								<path fill-rule="evenodd" clip-rule="evenodd" fill="#78BC35" d="M71.3,60.9H56.1c0,0-2.9,3.6,0.8,6.7
									C60.6,70.7,71.3,60.9,71.3,60.9z"/>
							</g>
							<g>
								<path fill-rule="evenodd" clip-rule="evenodd" fill="#589844" d="M71.6,61v14.7c0,0-3.7,2.8-6.9-0.7
									C61.5,71.4,71.6,61,71.6,61z"/>
								<path fill-rule="evenodd" clip-rule="evenodd" fill="#78BC35" d="M71.6,61v14.7c0,0,3.7,2.8,6.9-0.7
									C81.7,71.4,71.6,61,71.6,61z"/>
							</g>
						</g>
					</g>
				</g>
				<g>
					<path fill="#E5BA42" d="M32.9,51.4c-2.9,4.1-1.8,9.8,2.5,12.6c4.3,2.8,10,1.7,12.9-2.4c2.9-4.1,1.8-9.8-2.5-12.6
						C41.5,46.2,35.8,47.3,32.9,51.4z"/>
					<path fill="#F4CF67" d="M34.7,52.6c-2.2,3.2-1.4,7.5,1.9,9.7c3.3,2.2,7.7,1.3,9.9-1.9c2.2-3.2,1.4-7.5-1.9-9.7
						C41.3,48.6,36.9,49.4,34.7,52.6z"/>
					<g>
						<path fill="#E5BA42" d="M38.8,54.3l1.3-1.9l1.3,0.9L41.1,54c0.4-0.2,0.8-0.2,1.2-0.1l0.5-0.7l0.5,0.3l-0.4,0.6
							c0.1,0.1,0.2,0.1,0.4,0.2c0.8,0.5,1.5,1.7,0.7,2.9c-1.4,1.9-4.2-0.3-4.6,0.3c-0.2,0.3,0.1,0.6,0.4,0.8
							c0.3,0.2,1.1,0.5,1.5-0.1l1.5,1L41.5,61l-1.4-0.9l0.3-0.6c-0.3,0.1-0.8,0.1-1.3,0l-0.4,0.6l-0.5-0.3l0.3-0.5
							c-0.1,0-0.2-0.1-0.3-0.2c-0.9-0.6-1.8-1.8-1-3c1.2-1.8,4.2,0.4,4.8-0.4c0.2-0.3,0-0.6-0.3-0.8c-0.6-0.4-1.2-0.3-1.6,0.2
							L38.8,54.3z"/>
					</g>
				</g>
				<g>
					<path fill="#E5BA42" d="M77.6,38.5c1.7,3.6,6.2,5.2,9.9,3.5c3.7-1.7,5.4-6,3.6-9.7c-1.7-3.6-6.2-5.2-9.9-3.6
						C77.5,30.5,75.9,34.8,77.6,38.5z"/>
					<path fill="#F4CF67" d="M79.2,37.8c1.3,2.8,4.7,4,7.6,2.7c2.9-1.3,4.1-4.6,2.8-7.4c-1.3-2.8-4.7-4-7.6-2.7
						C79.1,31.7,77.8,35,79.2,37.8z"/>
					<g>
						<path fill="#E5BA42" d="M82.1,35.7L81.3,34l1.2-0.5l0.3,0.5c0-0.4,0.2-0.6,0.4-0.9l-0.3-0.6l0.4-0.2l0.2,0.5
							c0.1-0.1,0.2-0.1,0.3-0.2c0.7-0.3,1.9-0.3,2.3,0.7c0.8,1.7-1.9,2.7-1.7,3.2c0.1,0.3,0.5,0.2,0.7,0.1c0.3-0.1,0.8-0.5,0.6-1.1
							l1.3-0.6l0.8,1.7l-1.2,0.5l-0.3-0.5c-0.1,0.3-0.2,0.6-0.5,0.8l0.3,0.5l-0.4,0.2l-0.2-0.4c-0.1,0-0.2,0.1-0.2,0.1
							c-0.8,0.4-2,0.4-2.5-0.6c-0.7-1.6,2.1-2.6,1.7-3.3c-0.1-0.2-0.4-0.2-0.6-0.1c-0.5,0.2-0.7,0.7-0.5,1.2L82.1,35.7z"/>
					</g>
				</g>
			</g>
		</g>
	</g>
</g>
</svg>
