<?xml version="1.0" encoding="utf-8"?>
<!-- Generator: Adobe Illustrator 17.1.0, SVG Export Plug-In . SVG Version: 6.00 Build 0)  -->
<!DOCTYPE svg PUBLIC "-//W3C//DTD SVG 1.1//EN" "http://www.w3.org/Graphics/SVG/1.1/DTD/svg11.dtd">
<svg version="1.1" id="Слой_1" xmlns="http://www.w3.org/2000/svg" xmlns:xlink="http://www.w3.org/1999/xlink" x="0px" y="0px"
	 viewBox="0 0 190.6 62.5" enable-background="new 0 0 190.6 62.5" xml:space="preserve">
<path fill="#CBBBA0" d="M190.6,54.1c0,4.7-3.8,8.5-8.4,8.5H8.4c-4.7,0-8.4-3.8-8.4-8.5V8.5C0,3.8,3.8,0,8.4,0h173.8
	c4.7,0,8.4,3.8,8.4,8.5V54.1L190.6,54.1z"/>
<path fill="#FBFBFB" d="M148.5,30.3c-1.3,0-2.2,0.3-2.7,1c-0.6,0.7-0.9,1.8-0.9,3.3v0.4c0,1.7,0.3,3,0.9,3.7
	c0.6,0.7,1.5,1.1,2.8,1.1c1.1,0,1.9-0.4,2.5-1.3c0.6-0.9,0.9-2,0.9-3.6c0-1.5-0.3-2.7-0.9-3.5C150.5,30.7,149.6,30.3,148.5,30.3
	L148.5,30.3z M148.8,41.5c-0.8,0-1.5-0.1-2.2-0.4c-0.7-0.3-1.2-0.8-1.7-1.4h-0.1c0.1,0.7,0.1,1.4,0.1,2v5.1h-1.9V29h1.5l0.3,1.7h0.1
	c0.5-0.7,1-1.2,1.7-1.5c0.6-0.3,1.4-0.4,2.2-0.4c1.6,0,2.9,0.6,3.8,1.7c0.9,1.1,1.3,2.7,1.3,4.7c0,2-0.5,3.6-1.4,4.7
	C151.7,40.9,150.4,41.5,148.8,41.5L148.8,41.5z"/>
<polygon fill="#FBFBFB" points="158.2,41.3 156.4,41.3 156.4,23.8 158.2,23.8 158.2,41.3 "/>
<path fill="#FBFBFB" d="M164.8,40c1.2,0,2.1-0.3,2.7-1c0.7-0.6,1-1.5,1-2.7v-1.1l-1.9,0.1c-1.5,0.1-2.6,0.3-3.2,0.7
	c-0.7,0.4-1,1-1,1.9c0,0.7,0.2,1.2,0.6,1.5C163.4,39.8,164,40,164.8,40L164.8,40z M169,41.3l-0.4-1.8h-0.1c-0.6,0.8-1.2,1.3-1.8,1.6
	c-0.6,0.3-1.4,0.4-2.3,0.4c-1.2,0-2.2-0.3-2.9-0.9c-0.7-0.6-1-1.5-1-2.7c0-2.5,2-3.8,6-3.9l2.1-0.1v-0.8c0-1-0.2-1.7-0.6-2.1
	c-0.4-0.5-1.1-0.7-2-0.7c-1,0-2.2,0.3-3.5,0.9l-0.6-1.4c0.6-0.3,1.3-0.6,2-0.8c0.7-0.2,1.4-0.3,2.2-0.3c1.5,0,2.6,0.3,3.3,1
	c0.7,0.7,1.1,1.7,1.1,3.1v8.4H169L169,41.3z"/>
<path fill="#FBFBFB" d="M171.4,29h2l2.7,7c0.6,1.6,1,2.8,1.1,3.5h0.1c0.1-0.4,0.3-1,0.6-2c0.3-0.9,1.3-3.8,3.1-8.5h2l-5.3,14
	c-0.5,1.4-1.1,2.4-1.8,3c-0.7,0.6-1.6,0.9-2.6,0.9c-0.6,0-1.1-0.1-1.7-0.2v-1.5c0.4,0.1,0.9,0.1,1.4,0.1c1.3,0,2.2-0.7,2.7-2.2
	l0.7-1.8L171.4,29L171.4,29z"/>
<path fill="#FBFBFB" d="M113.2,36.6c0.6-0.6,0.6-1.4,0.6-1.9c0-1.9-1.1-4.7-3.2-4.7c-0.7,0-1.4,0.3-1.8,0.9
	c-0.4,0.5-0.6,1.2-0.6,1.9c0,1.7,1,4.6,3.2,4.6C112.1,37.4,112.8,37.1,113.2,36.6L113.2,36.6z M112.4,41.5c-0.2,0-0.3,0-0.6,0
	c-0.2,0-1.6,0.1-2.7,0.4c-0.6,0.2-2.2,0.8-2.2,2.7c0,1.8,1.8,3.1,4.5,3.1c2.5,0,3.8-1.2,3.8-2.8C115.2,43.6,114.4,42.9,112.4,41.5
	L112.4,41.5z M114.2,30.1c0.6,0.5,1.8,1.5,1.8,3.5c0,1.9-1.1,2.8-2.2,3.7c-0.3,0.3-0.7,0.7-0.7,1.3c0,0.6,0.4,0.9,0.7,1.1l0.9,0.7
	c1.1,1,2.2,1.8,2.2,3.6c0,2.4-2.3,4.9-6.8,4.9c-3.7,0-5.5-1.8-5.5-3.7c0-0.9,0.5-2.2,2-3.1c1.6-1,3.8-1.1,4.9-1.2
	c-0.4-0.5-0.8-1-0.8-1.8c0-0.4,0.1-0.7,0.3-1c-0.3,0-0.6,0.1-0.8,0.1c-2.7,0-4.3-2-4.3-4c0-1.2,0.5-2.5,1.6-3.5
	c1.5-1.2,3.2-1.4,4.6-1.4h5.3l-1.6,0.9H114.2L114.2,30.1z"/>
<path fill="#FBFBFB" d="M101.2,39c0.6-0.8,0.8-1.9,0.8-2.9c0-2.3-1.1-6.6-4.3-6.6c-0.8,0-1.7,0.3-2.3,0.9c-1,0.9-1.2,2-1.2,3.1
	c0,2.5,1.3,6.7,4.4,6.7C99.6,40.4,100.7,39.9,101.2,39L101.2,39z M98,41.1c-4.1,0-6.3-3.2-6.3-6.1c0-3.4,2.8-6.2,6.7-6.2
	c3.8,0,6.1,3,6.1,6.1C104.6,37.9,102.2,41.1,98,41.1L98,41.1z"/>
<path fill="#FBFBFB" d="M87.3,39c0.6-0.8,0.8-1.9,0.8-2.9c0-2.3-1.1-6.6-4.3-6.6c-0.8,0-1.7,0.3-2.3,0.9c-1,0.9-1.2,2-1.2,3.1
	c0,2.5,1.3,6.7,4.4,6.7C85.7,40.4,86.7,39.9,87.3,39L87.3,39z M84.1,41.1c-4.1,0-6.3-3.2-6.3-6.1c0-3.4,2.8-6.2,6.7-6.2
	c3.8,0,6.1,3,6.1,6.1C90.6,37.9,88.3,41.1,84.1,41.1L84.1,41.1z"/>
<path fill="#FBFBFB" d="M75.8,40.7l-3.7,0.9c-1.5,0.2-2.8,0.4-4.3,0.4c-7.1,0-9.9-5.3-9.9-9.4c0-5,3.9-9.7,10.4-9.7
	c1.4,0,2.7,0.2,4,0.5c1.9,0.5,2.8,1.2,3.4,1.6l-2.1,2l-0.9,0.2l0.6-1c-0.9-0.9-2.5-2.4-5.5-2.4c-4.1,0-7.2,3.1-7.2,7.6
	c0,4.9,3.5,9.4,9.2,9.4c1.7,0,2.5-0.3,3.3-0.6v-4.2l-3.9,0.2l2.1-1.1h5.5l-0.7,0.6c-0.2,0.2-0.2,0.2-0.3,0.4c0,0.2-0.1,1-0.1,1.2
	V40.7L75.8,40.7z"/>
<path fill="#FBFBFB" d="M122.4,40c-0.9-0.1-1-0.2-1-1.2v-0.3V24.1c0-0.1,0-0.1,0-0.2c0.1-0.9,0.4-1.1,1.2-1.5h-3.7l-1.9,0.9h2v0l0,0
	v15.1v0.9c0,0.5-0.1,0.6-0.7,1.4h4.6l1-0.6C123.3,40.1,122.9,40,122.4,40L122.4,40z"/>
<g>
	<g>
		<linearGradient id="SVGID_1_" gradientUnits="userSpaceOnUse" x1="47.7653" y1="39.1183" x2="41.0317" y2="25.9029">
			<stop  offset="0" style="stop-color:#FACD8A"/>
			<stop  offset="1" style="stop-color:#F5906C"/>
		</linearGradient>
		<path fill-rule="evenodd" clip-rule="evenodd" fill="url(#SVGID_1_)" d="M42.7,39.3c4.8-2.6,8.5-4.7,8.8-4.8c1-0.5,2-1.9,0-3.1
			c-0.7-0.4-4.2-2.3-8.9-4.8l-6.3,6.4L42.7,39.3z"/>
		<linearGradient id="SVGID_2_" gradientUnits="userSpaceOnUse" x1="42.5647" y1="32.6176" x2="16.2623" y2="59.8545">
			<stop  offset="0" style="stop-color:#E62D38"/>
			<stop  offset="1" style="stop-color:#78459A"/>
		</linearGradient>
		<path fill-rule="evenodd" clip-rule="evenodd" fill="url(#SVGID_2_)" d="M36.3,32.9L16,53.3c0.5,0.1,1-0.1,1.6-0.4
			c1.3-0.7,15.4-8.4,25-13.7L36.3,32.9z"/>
		<linearGradient id="SVGID_3_" gradientUnits="userSpaceOnUse" x1="41.8651" y1="33.0647" x2="16.9662" y2="6.3639">
			<stop  offset="0" style="stop-color:#E5EBA5"/>
			<stop  offset="1" style="stop-color:#38BBBA"/>
		</linearGradient>
		<path fill-rule="evenodd" clip-rule="evenodd" fill="url(#SVGID_3_)" d="M36.3,32.9l6.3-6.4c0,0-23.6-12.9-25-13.6
			c-0.5-0.3-1.2-0.4-1.8-0.2L36.3,32.9z"/>
		<linearGradient id="SVGID_4_" gradientUnits="userSpaceOnUse" x1="25.3708" y1="70.8067" x2="25.3708" y2="-4.7806">
			<stop  offset="0" style="stop-color:#8DD1CD"/>
			<stop  offset="1" style="stop-color:#006F8C"/>
		</linearGradient>
		<path fill-rule="evenodd" clip-rule="evenodd" fill="url(#SVGID_4_)" d="M36.3,32.9L15.9,12.7c-0.8,0.2-1.5,0.9-1.5,2.4
			c0,2.4,0.2,33.9,0.2,35.9c0,1.4,0.6,2.3,1.6,2.4L36.3,32.9z"/>
	</g>
	<linearGradient id="SVGID_5_" gradientUnits="userSpaceOnUse" x1="47.7653" y1="39.1183" x2="41.0317" y2="25.9029">
		<stop  offset="0" style="stop-color:#FACD8A"/>
		<stop  offset="1" style="stop-color:#F5906C"/>
	</linearGradient>
	<path fill-rule="evenodd" clip-rule="evenodd" fill="url(#SVGID_5_)" d="M42.7,39.3c4.8-2.6,8.5-4.7,8.8-4.8c1-0.5,2-1.9,0-3.1
		c-0.7-0.4-4.2-2.3-8.9-4.8l-6.3,6.4L42.7,39.3z"/>
	<linearGradient id="SVGID_6_" gradientUnits="userSpaceOnUse" x1="42.5647" y1="32.6176" x2="16.2623" y2="59.8545">
		<stop  offset="0" style="stop-color:#E62D38"/>
		<stop  offset="1" style="stop-color:#78459A"/>
	</linearGradient>
	<path fill-rule="evenodd" clip-rule="evenodd" fill="url(#SVGID_6_)" d="M36.3,32.9L16,53.3c0.5,0.1,1-0.1,1.6-0.4
		c1.3-0.7,15.4-8.4,25-13.7L36.3,32.9z"/>
	<linearGradient id="SVGID_7_" gradientUnits="userSpaceOnUse" x1="41.8651" y1="33.0647" x2="16.9662" y2="6.3639">
		<stop  offset="0" style="stop-color:#E5EBA5"/>
		<stop  offset="1" style="stop-color:#38BBBA"/>
	</linearGradient>
	<path fill-rule="evenodd" clip-rule="evenodd" fill="url(#SVGID_7_)" d="M36.3,32.9l6.3-6.4c0,0-23.6-12.9-25-13.6
		c-0.5-0.3-1.2-0.4-1.8-0.2L36.3,32.9z"/>
	<linearGradient id="SVGID_8_" gradientUnits="userSpaceOnUse" x1="25.3708" y1="70.8067" x2="25.3708" y2="-4.7806">
		<stop  offset="0" style="stop-color:#8DD1CD"/>
		<stop  offset="1" style="stop-color:#006F8C"/>
	</linearGradient>
	<path fill-rule="evenodd" clip-rule="evenodd" fill="url(#SVGID_8_)" d="M36.3,32.9L15.9,12.7c-0.8,0.2-1.5,0.9-1.5,2.4
		c0,2.4,0.2,33.9,0.2,35.9c0,1.4,0.6,2.3,1.6,2.4L36.3,32.9z"/>
</g>
<path fill="#FBFBFB" d="M130.5,32.6c0.5-0.2,0.7-0.3,0.7-0.7c0-1-1.2-2.2-2.5-2.2c-1,0-3,0.8-3,3.6c0,0.4,0.1,0.9,0.1,1.4
	L130.5,32.6L130.5,32.6z M132.9,40.2c-0.3,0.2-0.6,0.3-0.8,0.5c-0.8,0.4-1.7,0.5-2.5,0.5c-0.8,0-2.1-0.1-3.4-1
	c-1.8-1.3-2.6-3.5-2.6-5.4c0-4,3.2-5.9,5.9-5.9c0.9,0,1.9,0.2,2.6,0.7c1.3,0.8,1.6,1.9,1.8,2.5l-6,2.4l-2,0.2
	c0.6,3.3,2.8,5.2,5.3,5.2c1.3,0,2.3-0.5,3.1-0.9L132.9,40.2L132.9,40.2z"/>
<polygon fill="#FBFBFB" points="135.4,29 135.4,30.7 135.2,30.7 135.2,29 134.7,29 134.7,28.8 136,28.8 136,29 135.4,29 "/>
<polygon fill="#FBFBFB" points="137.7,30.7 137.7,29 137.7,29 137.2,30.7 137,30.7 136.5,29 136.5,29 136.5,30.7 136.3,30.7 
	136.3,28.8 136.6,28.8 137.1,30.3 137.1,30.3 137.6,28.8 137.9,28.8 137.9,30.7 137.7,30.7 "/>
<path fill="#FCFCFD" d="M61.3,15.7c-0.5-1.4-0.7-2.1-0.7-2.2h-0.1c0,0.1-0.2,0.9-0.7,2.2H61.3L61.3,15.7z M63.2,17.9h-1.3
	c0-0.2-0.1-0.7-0.4-1.5h-1.9c-0.3,0.8-0.4,1.3-0.4,1.5h-1.2c0-0.1,0.3-1,0.9-2.6c0.6-1.6,0.9-2.5,0.9-2.7h1.5c0,0.2,0.3,1,0.8,2.6
	C62.9,16.9,63.2,17.8,63.2,17.9L63.2,17.9z"/>
<path fill="#FCFCFD" d="M68.3,17.9h-1c0-0.1-0.4-0.7-1.1-1.7c-0.8-1.1-1.2-1.9-1.3-2.3h-0.1c0.1,0.6,0.1,1.1,0.1,1.6
	c0,0.7,0,1.5,0.1,2.4h-1c0-0.8,0.1-1.7,0.1-2.7c0-1,0-1.8-0.1-2.5h1.2c0,0.1,0.3,0.7,1,1.7c0.7,1.1,1.1,1.8,1.2,2.1h0.1
	c-0.1-0.6-0.1-1.1-0.1-1.6c0-0.7,0-1.5-0.1-2.2h1c0,0.7-0.1,1.5-0.1,2.5C68.3,16.2,68.3,17.1,68.3,17.9L68.3,17.9z"/>
<path fill="#FCFCFD" d="M73.1,15.3c0-0.5-0.2-0.9-0.4-1.3c-0.3-0.4-0.8-0.5-1.4-0.5c-0.1,0-0.3,0-0.5,0c0,0.5,0,1.1,0,1.7
	c0,0.6,0,1.3,0,1.9c0.2,0,0.3,0.1,0.5,0.1c0.6,0,1-0.2,1.3-0.5C72.9,16.3,73.1,15.8,73.1,15.3L73.1,15.3z M74.2,15.2
	c0,0.8-0.2,1.4-0.7,2c-0.5,0.6-1.2,0.9-2,0.9c-0.4,0-0.9,0-1.6,0c0-0.8,0.1-1.7,0.1-2.7c0-1,0-1.8-0.1-2.5h0.7c0.1,0,0.3,0,0.5,0
	c0.2,0,0.4,0,0.4,0c1,0,1.7,0.2,2.1,0.7C73.9,13.9,74.2,14.5,74.2,15.2L74.2,15.2z"/>
<path fill="#FCFCFD" d="M78,14.3c0-0.5-0.3-0.8-1-0.8c-0.3,0-0.5,0-0.7,0.1c0,0.4,0,1,0,1.6c0.1,0,0.3,0,0.4,0
	C77.6,15.1,78,14.8,78,14.3L78,14.3z M79.5,17.9h-1.2c-0.3-0.9-0.5-1.5-0.7-1.8c-0.2-0.2-0.4-0.3-0.8-0.3c-0.2,0-0.3,0-0.4,0
	c0,0.7,0,1.4,0,2.1h-1.1c0-0.8,0.1-1.7,0.1-2.7c0-1,0-1.8-0.1-2.5H76c0.1,0,0.2,0,0.5,0c0.3,0,0.5,0,0.7,0c1.2,0,1.8,0.4,1.8,1.3
	c0,0.7-0.4,1.1-1.1,1.4v0.1c0.3,0.1,0.5,0.3,0.7,0.6C78.9,16.4,79.2,17,79.5,17.9L79.5,17.9z"/>
<path fill="#FCFCFD" d="M84.2,15.4c0-0.6-0.1-1-0.4-1.4c-0.3-0.3-0.6-0.5-1.1-0.5c-0.4,0-0.7,0.2-1,0.5c-0.3,0.4-0.4,0.8-0.4,1.3
	c0,0.6,0.1,1,0.4,1.4c0.3,0.3,0.6,0.5,1.1,0.5c0.4,0,0.7-0.2,1-0.5C84,16.3,84.2,15.9,84.2,15.4L84.2,15.4z M85.3,15.2
	c0,0.8-0.3,1.5-0.8,2c-0.5,0.5-1.1,0.8-1.9,0.8c-0.7,0-1.3-0.2-1.8-0.7c-0.5-0.5-0.7-1.1-0.7-1.9c0-0.8,0.3-1.5,0.8-2
	c0.5-0.5,1.1-0.8,1.9-0.8c0.7,0,1.3,0.2,1.8,0.7S85.3,14.5,85.3,15.2L85.3,15.2z"/>
<path fill="#FCFCFD" d="M87.6,17.9h-1.1c0-0.8,0.1-1.7,0.1-2.7c0-1,0-1.8-0.1-2.5h1.1c0,0.7-0.1,1.5-0.1,2.5
	C87.5,16.2,87.5,17.1,87.6,17.9L87.6,17.9z"/>
<path fill="#FCFCFD" d="M92.3,15.3c0-0.5-0.2-0.9-0.4-1.3c-0.3-0.4-0.8-0.5-1.4-0.5c-0.1,0-0.3,0-0.5,0c0,0.5,0,1.1,0,1.7
	c0,0.6,0,1.3,0,1.9c0.2,0,0.3,0.1,0.5,0.1c0.6,0,1-0.2,1.3-0.5C92.1,16.3,92.3,15.8,92.3,15.3L92.3,15.3z M93.4,15.2
	c0,0.8-0.2,1.4-0.7,2c-0.5,0.6-1.2,0.9-2,0.9c-0.4,0-0.9,0-1.6,0c0-0.8,0.1-1.7,0.1-2.7c0-1,0-1.8-0.1-2.5h0.7c0.1,0,0.3,0,0.5,0
	c0.2,0,0.4,0,0.4,0c1,0,1.7,0.2,2.1,0.7C93.2,13.9,93.4,14.5,93.4,15.2L93.4,15.2z"/>
<path fill="#FCFCFD" d="M99.2,15.7c-0.5-1.4-0.7-2.1-0.7-2.2h-0.1c0,0.1-0.2,0.9-0.7,2.2H99.2L99.2,15.7z M101.1,17.9h-1.3
	c0-0.2-0.1-0.7-0.4-1.5h-1.9c-0.3,0.8-0.4,1.3-0.4,1.5H96c0-0.1,0.3-1,0.9-2.6c0.6-1.6,0.9-2.5,0.9-2.7h1.5c0,0.2,0.3,1,0.8,2.6
	C100.8,16.9,101.1,17.8,101.1,17.9L101.1,17.9z"/>
<path fill="#FCFCFD" d="M104.7,14.3c0-0.6-0.4-0.9-1.1-0.9c-0.2,0-0.4,0-0.6,0.1c0,0.5,0,1.1,0,1.7c0.1,0,0.1,0,0.2,0
	C104.3,15.2,104.7,14.9,104.7,14.3L104.7,14.3z M105.8,14.1c0,0.6-0.2,1.1-0.7,1.4c-0.5,0.3-1.1,0.5-1.7,0.5c-0.1,0-0.2,0-0.3,0
	c0,0.5,0,1.2,0,2H102c0-0.8,0.1-1.7,0.1-2.7c0-1,0-1.8-0.1-2.5h0.7c0.1,0,0.3,0,0.6,0c0.3,0,0.5,0,0.7,0c0.5,0,0.9,0.1,1.3,0.3
	C105.6,13.3,105.8,13.6,105.8,14.1L105.8,14.1z"/>
<path fill="#FCFCFD" d="M109.6,14.3c0-0.6-0.4-0.9-1.1-0.9c-0.2,0-0.4,0-0.6,0.1c0,0.5,0,1.1,0,1.7c0.1,0,0.1,0,0.2,0
	C109.1,15.2,109.6,14.9,109.6,14.3L109.6,14.3z M110.6,14.1c0,0.6-0.2,1.1-0.7,1.4c-0.5,0.3-1.1,0.5-1.7,0.5c-0.1,0-0.2,0-0.3,0
	c0,0.5,0,1.2,0,2h-1.1c0-0.8,0.1-1.7,0.1-2.7c0-1,0-1.8-0.1-2.5h0.7c0.1,0,0.3,0,0.6,0c0.3,0,0.5,0,0.7,0c0.5,0,0.9,0.1,1.3,0.3
	C110.4,13.3,110.6,13.6,110.6,14.1L110.6,14.1z"/>
<path fill="#FCFCFD" d="M117.4,15.4c0-0.6-0.1-1-0.4-1.4c-0.3-0.3-0.6-0.5-1.1-0.5c-0.4,0-0.7,0.2-1,0.5c-0.3,0.4-0.4,0.8-0.4,1.3
	c0,0.6,0.1,1,0.4,1.4c0.3,0.3,0.6,0.5,1.1,0.5c0.4,0,0.7-0.2,1-0.5C117.2,16.3,117.4,15.9,117.4,15.4L117.4,15.4z M118.5,15.2
	c0,0.8-0.3,1.5-0.8,2c-0.5,0.5-1.1,0.8-1.9,0.8c-0.7,0-1.3-0.2-1.8-0.7c-0.5-0.5-0.7-1.1-0.7-1.9c0-0.8,0.3-1.5,0.8-2
	c0.5-0.5,1.1-0.8,1.9-0.8c0.7,0,1.3,0.2,1.8,0.7C118.2,13.8,118.5,14.5,118.5,15.2L118.5,15.2z"/>
<path fill="#FCFCFD" d="M123.9,17.9h-1c0-0.1-0.4-0.7-1.1-1.7c-0.8-1.1-1.2-1.9-1.3-2.3h-0.1c0.1,0.6,0.1,1.1,0.1,1.6
	c0,0.7,0,1.5,0.1,2.4h-1c0-0.8,0.1-1.7,0.1-2.7c0-1,0-1.8-0.1-2.5h1.2c0,0.1,0.3,0.7,1,1.7c0.7,1.1,1.1,1.8,1.2,2.1h0.1
	C123,16,123,15.4,123,15c0-0.7,0-1.5-0.1-2.2h1c0,0.7-0.1,1.5-0.1,2.5C123.9,16.2,123.9,17.1,123.9,17.9L123.9,17.9z"/>
</svg>
