<?xml version="1.0" encoding="utf-8"?>
<!-- Generator: Adobe Illustrator 17.1.0, SVG Export Plug-In . SVG Version: 6.00 Build 0)  -->
<!DOCTYPE svg PUBLIC "-//W3C//DTD SVG 1.1//EN" "http://www.w3.org/Graphics/SVG/1.1/DTD/svg11.dtd">
<svg version="1.1" id="Слой_1" xmlns="http://www.w3.org/2000/svg" xmlns:xlink="http://www.w3.org/1999/xlink" x="0px" y="0px"
	 viewBox="0 0 97 97.6" enable-background="new 0 0 97 97.6" xml:space="preserve">
<g>
	<circle fill="#A31627" cx="48.6" cy="48.4" r="48.4"/>
	<circle fill="#BE1622" cx="47.6" cy="50" r="47.6"/>
	<g>
		
			<circle fill="none" stroke="#F2C341" stroke-width="1.9286" stroke-linecap="round" stroke-linejoin="round" stroke-dasharray="1.9062,5.7185" cx="47.6" cy="50" r="43.7"/>
	</g>
	<g opacity="0.28">
		<path fill="#FFFFFF" d="M80.6,15.5L10.8,80.1c1,1.2,2.1,2.4,3.2,3.5L83.8,19C82.8,17.8,81.7,16.6,80.6,15.5z"/>
		<path fill="#FFFFFF" d="M92.5,33.9c-1.3-3.7-3.1-7.2-5.3-10.5l-69.1,64c3.1,2.4,6.4,4.5,10,6.1L92.5,33.9z"/>
		<path fill="#FFFFFF" d="M2.6,65.5c1.4,4,3.3,7.8,5.6,11.2l69.1-64c-3.3-2.6-6.9-4.8-10.8-6.5L2.6,65.5z"/>
	</g>
	<circle fill="#A31627" cx="47.6" cy="50" r="39.9"/>
	<circle fill="#BE1622" cx="47.6" cy="50" r="38.1"/>
	<g>
		<text transform="matrix(1 0 0 1 16.2086 69.367)" fill="#FFE082" font-family="'OpenSans-Bold'" font-size="55.746">50</text>
	</g>
	<g opacity="0.16">
		<path fill="#FFFFFF" d="M10.4,58.2c0.9,4.3,2.6,8.3,4.9,11.9l55-50.9c-3.4-2.5-7.3-4.5-11.5-5.8L10.4,58.2z"/>
		<path fill="#FFFFFF" d="M73.6,22L17.8,73.7c1,1.2,2.1,2.4,3.2,3.5l55.9-51.8C75.8,24.2,74.7,23.1,73.6,22z"/>
		<path fill="#FFFFFF" d="M84.7,41.1c-1-4-2.5-7.7-4.6-11.1L25.2,80.8c3.2,2.4,6.8,4.2,10.7,5.5L84.7,41.1z"/>
	</g>
	<path fill="#FFFFFF" d="M36.7,63.3c-0.5,6.5-1.4,7.4-7.6,7.9c6.2,0.5,7.1,1.4,7.6,7.9c0.5-6.5,1.4-7.4,7.6-7.9
		C38.2,70.6,37.2,69.7,36.7,63.3z"/>
	<path fill="#FFFFFF" d="M75.2,3C74.4,13.3,72.9,14.7,63,15.5c9.9,0.8,11.4,2.2,12.2,12.6c0.8-10.4,2.3-11.8,12.2-12.6
		C77.5,14.7,75.9,13.3,75.2,3z"/>
</g>
</svg>
