<?xml version="1.0" encoding="utf-8"?>
<!-- Generator: Adobe Illustrator 17.1.0, SVG Export Plug-In . SVG Version: 6.00 Build 0)  -->
<!DOCTYPE svg PUBLIC "-//W3C//DTD SVG 1.1//EN" "http://www.w3.org/Graphics/SVG/1.1/DTD/svg11.dtd">
<svg version="1.1" id="Слой_1" xmlns="http://www.w3.org/2000/svg" xmlns:xlink="http://www.w3.org/1999/xlink" x="0px" y="0px"
	 viewBox="0 0 50 50" enable-background="new 0 0 50 50" xml:space="preserve">
<polygon fill="#35720D" points="16.8,25 0,8.2 0,8.2 0,41.8 "/>
<polygon fill="#35720D" points="25,16.8 41.8,0 41.8,0 8.2,0 "/>
<polygon fill="#35720D" points="25,33.2 8.2,50 8.2,50 41.8,50 "/>
<polygon fill="#35720D" points="33.2,25 50,41.8 50,41.8 50,8.2 "/>
<polygon fill="#375D3B" points="0,41.8 0,41.8 0,41.8 "/>
<polygon fill="#375D3B" points="50,8.2 50,8.2 50,8.2 "/>
<polygon fill="#145419" points="25,33.2 16.8,25 0,41.8 0,41.8 8.2,50 "/>
<polygon fill="#145419" points="25,16.8 33.2,25 50,8.2 50,8.2 41.8,0 "/>
<polygon fill="#375D3B" points="0,8.2 0,8.2 0,8.2 "/>
<polygon fill="#375D3B" points="50,41.8 50,41.8 50,41.8 "/>
<polygon fill="#375D3B" points="41.8,50 41.8,50 41.8,50 "/>
<polygon fill="#375D3B" points="8.2,0 8.2,0 8.2,0 "/>
<polygon fill="#145419" points="33.2,25 25,33.2 41.8,50 41.8,50 50,41.8 "/>
<polygon fill="#145419" points="16.8,25 25,16.8 8.2,0 8.2,0 0,8.2 "/>
<rect x="19.2" y="19.2" transform="matrix(-0.7071 -0.7071 0.7071 -0.7071 25.0009 60.3553)" fill="#1F4034" width="11.6" height="11.6"/>
<polygon fill="#1F4034" points="8.2,0 0,0 0,8.2 0,8.2 "/>
<polygon fill="#1F4034" points="41.8,50 50,50 50,41.8 50,41.8 "/>
<polygon fill="#375D3B" points="41.8,0 41.8,0 41.8,0 "/>
<polygon fill="#1F4034" points="50,8.2 50,0 41.8,0 41.8,0 "/>
<polygon fill="#375D3B" points="8.2,50 8.2,50 8.2,50 "/>
<polygon fill="#1F4034" points="0,41.8 0,50 8.2,50 8.2,50 "/>
</svg>
